<svg width="30" height="30" viewBox="0 0 30 30" fill="none" xmlns="http://www.w3.org/2000/svg">
<path fill-rule="evenodd" clip-rule="evenodd" d="M15 0C6.71591 0 0 6.71591 0 15C0 23.2841 6.71591 30 15 30C23.2841 30 30 23.2841 30 15C30 6.71591 23.2841 0 15 0ZM21.5018 12.4636C21.6215 12.3268 21.7127 12.1674 21.7699 11.9948C21.8271 11.8222 21.8492 11.6399 21.8349 11.4586C21.8206 11.2773 21.7702 11.1008 21.6867 10.9393C21.6032 10.7778 21.4882 10.6346 21.3485 10.5182C21.2088 10.4018 21.0472 10.3145 20.8733 10.2614C20.6994 10.2084 20.5166 10.1907 20.3358 10.2093C20.1549 10.2279 19.9796 10.2826 19.8201 10.37C19.6607 10.4573 19.5203 10.5757 19.4073 10.7182L13.5436 17.7532L10.5095 14.7177C10.2524 14.4693 9.9079 14.3319 9.55036 14.335C9.19282 14.3381 8.8508 14.4815 8.59797 14.7343C8.34515 14.9872 8.20173 15.3292 8.19863 15.6867C8.19552 16.0443 8.33297 16.3887 8.58136 16.6459L12.6723 20.7368C12.8063 20.8707 12.9667 20.9752 13.1433 21.0437C13.3199 21.1122 13.5089 21.1431 13.6981 21.1345C13.8873 21.1259 14.0727 21.078 14.2424 20.9938C14.4121 20.9096 14.5623 20.791 14.6836 20.6455L21.5018 12.4636Z" fill="#11AC90"/>
</svg>
