<svg width="35" height="35" viewBox="0 0 35 35" fill="none" xmlns="http://www.w3.org/2000/svg">
<g clip-path="url(#clip0_1_91)">
<path d="M35 17.4825C35 7.83125 27.16 0 17.5 0C7.84 0 0 7.83125 0 17.4825C0 22.7981 2.415 27.5887 6.195 30.8044C6.23 30.8394 6.265 30.8394 6.265 30.8744C6.58 31.1194 6.895 31.3644 7.245 31.6094C7.42 31.7144 7.56 31.8522 7.735 31.9922C10.627 33.953 14.0409 35.0008 17.535 35C21.0291 35.0008 24.443 33.953 27.335 31.9922C27.51 31.8872 27.65 31.7494 27.825 31.6422C28.14 31.3994 28.49 31.1544 28.805 30.9094C28.84 30.8744 28.875 30.8744 28.875 30.8394C32.585 27.5866 35 22.7981 35 17.4825V17.4825ZM17.5 32.7972C14.21 32.7972 11.2 31.7472 8.715 29.9994C8.75 29.7194 8.82 29.4416 8.89 29.1616C9.09855 28.4027 9.40443 27.6741 9.8 26.9938C10.185 26.3288 10.64 25.7338 11.2 25.2088C11.725 24.6838 12.355 24.1959 12.985 23.8109C13.65 23.4259 14.35 23.1459 15.12 22.9359C15.896 22.7268 16.6963 22.6216 17.5 22.6231C19.8858 22.6062 22.1839 23.5214 23.905 25.1738C24.71 25.9788 25.34 26.9238 25.795 28.0066C26.04 28.6366 26.215 29.3016 26.32 29.9994C23.7369 31.8153 20.6575 32.7922 17.5 32.7972ZM12.145 16.6097C11.8366 15.9036 11.6815 15.1401 11.69 14.3697C11.69 13.6019 11.83 12.8319 12.145 12.1319C12.46 11.4319 12.88 10.8041 13.405 10.2791C13.93 9.75406 14.56 9.33625 15.26 9.02125C15.96 8.70625 16.73 8.56625 17.5 8.56625C18.305 8.56625 19.04 8.70625 19.74 9.02125C20.44 9.33625 21.07 9.75625 21.595 10.2791C22.12 10.8041 22.54 11.4341 22.855 12.1319C23.17 12.8319 23.31 13.6019 23.31 14.3697C23.31 15.1747 23.17 15.9097 22.855 16.6075C22.551 17.2971 22.124 17.9257 21.595 18.4625C21.058 18.9908 20.4295 19.417 19.74 19.7203C18.2937 20.3147 16.6713 20.3147 15.225 19.7203C14.5355 19.417 13.907 18.9908 13.37 18.4625C12.8402 17.9335 12.4235 17.3024 12.145 16.6075V16.6097ZM28.385 28.2166C28.385 28.1466 28.35 28.1116 28.35 28.0416C28.0058 26.9465 27.4984 25.9097 26.845 24.9659C26.191 24.0152 25.3872 23.1767 24.465 22.4831C23.7607 21.9533 22.9972 21.5069 22.19 21.1531C22.5572 20.9108 22.8975 20.63 23.205 20.3153C23.7268 19.8002 24.1851 19.2244 24.57 18.6003C25.3452 17.3268 25.7455 15.8604 25.725 14.3697C25.7358 13.2661 25.5215 12.172 25.095 11.1541C24.674 10.1733 24.0679 9.28278 23.31 8.53125C22.5532 7.78757 21.6625 7.19379 20.685 6.78125C19.6654 6.35555 18.5698 6.14194 17.465 6.15344C16.36 6.14263 15.2644 6.35699 14.245 6.78344C13.259 7.1951 12.3662 7.80147 11.62 8.56625C10.8763 9.32222 10.2825 10.2122 9.87 11.1891C9.44354 12.207 9.22917 13.3011 9.24 14.4047C9.24 15.1747 9.345 15.9097 9.555 16.6075C9.765 17.3425 10.045 18.0075 10.43 18.6353C10.78 19.2653 11.27 19.8253 11.795 20.3503C12.11 20.6653 12.46 20.9431 12.845 21.1881C12.0353 21.5514 11.2716 22.0096 10.57 22.5531C9.66 23.2531 8.855 24.0909 8.19 25.0009C7.52994 25.9408 7.02205 26.9787 6.685 28.0766C6.65 28.1466 6.65 28.2166 6.65 28.2516C3.885 25.4537 2.17 21.6781 2.17 17.4825C2.17 9.05625 9.065 2.16781 17.5 2.16781C25.935 2.16781 32.83 9.05625 32.83 17.4825C32.8254 21.5074 31.2273 25.3667 28.385 28.2166V28.2166Z" fill="#11AC90"/>
</g>
<defs>
<clipPath id="clip0_1_91">
<rect width="35" height="35" fill="white"/>
</clipPath>
</defs>
</svg>
