<svg width="38" height="38" viewBox="0 0 38 38" fill="none" xmlns="http://www.w3.org/2000/svg">
<rect width="38" height="38" rx="6.08" fill="#11AC90"/>
<g clip-path="url(#clip0_1_18)">
<path d="M18.4424 18.2312C18.7842 18.5926 19.3408 18.5926 19.6875 18.2312L25.0049 12.6551C26.5479 11.034 26.46 8.34842 24.7314 6.85428C23.2275 5.55057 20.9863 5.78495 19.6094 7.23026L19.0625 7.80155L18.5205 7.23514C17.1436 5.78495 14.9023 5.55057 13.3984 6.85428C11.6748 8.34842 11.582 11.034 13.125 12.6551L18.4424 18.2312ZM32.6025 22.0203C32.0264 21.4978 31.1279 21.532 30.5225 22.0203L26.0107 25.6287C25.459 26.073 24.7705 26.3123 24.0576 26.3123H18.2812C17.8516 26.3123 17.5 25.9607 17.5 25.531C17.5 25.1014 17.8516 24.7498 18.2812 24.7498H22.1045C22.8809 24.7498 23.6035 24.2176 23.7305 23.451C23.8916 22.4744 23.1396 21.6248 22.1875 21.6248H14.375C13.0566 21.6248 11.7822 22.0789 10.7568 22.909L8.48633 24.7498H5.78125C5.35156 24.7498 5 25.1014 5 25.531V30.2185C5 30.6482 5.35156 30.9998 5.78125 30.9998H23.2031C23.9111 30.9998 24.5996 30.7605 25.1562 30.3162L32.5391 24.408C33.2812 23.8172 33.3398 22.6844 32.6025 22.0203Z" fill="white"/>
</g>
<defs>
<clipPath id="clip0_1_18">
<rect width="28.125" height="25" fill="white" transform="translate(5 6)"/>
</clipPath>
</defs>
</svg>
