<svg width="38" height="38" viewBox="0 0 38 38" fill="none" xmlns="http://www.w3.org/2000/svg">
<rect width="38" height="38" rx="6.08" fill="#AED8D0"/>
<path fill-rule="evenodd" clip-rule="evenodd" d="M18 10C17.2044 10 16.4413 10.3161 15.8787 10.8787C15.3161 11.4413 15 12.2044 15 13V14H12C11.2044 14 10.4413 14.3161 9.87868 14.8787C9.31607 15.4413 9 16.2044 9 17V25C9 25.7956 9.31607 26.5587 9.87868 27.1213C10.4413 27.6839 11.2044 28 12 28H26C26.7956 28 27.5587 27.6839 28.1213 27.1213C28.6839 26.5587 29 25.7956 29 25V17C29 16.2044 28.6839 15.4413 28.1213 14.8787C27.5587 14.3161 26.7956 14 26 14H23V13C23 12.2044 22.6839 11.4413 22.1213 10.8787C21.5587 10.3161 20.7956 10 20 10H18ZM21 14H17V13C17 12.7348 17.1054 12.4804 17.2929 12.2929C17.4804 12.1054 17.7348 12 18 12H20C20.2652 12 20.5196 12.1054 20.7071 12.2929C20.8946 12.4804 21 12.7348 21 13V14Z" fill="black"/>
</svg>
