<svg width="38" height="38" viewBox="0 0 38 38" fill="none" xmlns="http://www.w3.org/2000/svg">
<rect width="38" height="38" rx="6.08" fill="#11AC90"/>
<g clip-path="url(#clip0_1_27)">
<path fill-rule="evenodd" clip-rule="evenodd" d="M19.0267 7C16.0153 7 13.2713 7.99467 11.648 8.80733C11.5013 8.88067 11.3647 8.95267 11.2373 9.022C10.9853 9.15933 10.7707 9.28733 10.6 9.4L12.4467 12.1187L13.316 12.4647C16.7133 14.1787 21.2693 14.1787 24.6673 12.4647L25.654 11.9527L27.4007 9.4C27.0388 9.164 26.6625 8.95091 26.274 8.762C24.6593 7.958 21.9813 7 19.0267 7ZM14.7313 10.0773C14.0774 9.95497 13.4316 9.79289 12.7973 9.592C14.318 8.91667 16.5847 8.2 19.026 8.2C20.7173 8.2 22.3167 8.544 23.6393 8.98C22.0893 9.198 20.4353 9.568 18.8593 10.0233C17.6193 10.382 16.17 10.3433 14.7313 10.0773V10.0773ZM25.3713 13.4533L25.208 13.536C21.47 15.4213 16.5127 15.4213 12.7747 13.536L12.62 13.4573C7.00534 19.618 2.71868 30.998 19.0267 30.998C35.3333 30.998 30.942 19.4053 25.3713 13.4533ZM18.3333 19C17.9797 19 17.6406 19.1405 17.3905 19.3905C17.1405 19.6406 17 19.9797 17 20.3333C17 20.687 17.1405 21.0261 17.3905 21.2761C17.6406 21.5262 17.9797 21.6667 18.3333 21.6667V19ZM19.6667 17.6667V17H18.3333V17.6667C17.6261 17.6667 16.9478 17.9476 16.4477 18.4477C15.9476 18.9478 15.6667 19.6261 15.6667 20.3333C15.6667 21.0406 15.9476 21.7189 16.4477 22.219C16.9478 22.719 17.6261 23 18.3333 23V25.6667C18.0576 25.6667 17.7886 25.5813 17.5634 25.4222C17.3383 25.263 17.168 25.038 17.076 24.778C17.0171 24.6113 16.8944 24.4748 16.7349 24.3985C16.5754 24.3222 16.3921 24.3125 16.2253 24.3713C16.0586 24.4302 15.9221 24.5529 15.8458 24.7124C15.7696 24.872 15.7598 25.0553 15.8187 25.222C16.0026 25.742 16.3431 26.1922 16.7935 26.5106C17.2438 26.829 17.7818 27 18.3333 27V27.6667H19.6667V27C20.3739 27 21.0522 26.719 21.5523 26.219C22.0524 25.7189 22.3333 25.0406 22.3333 24.3333C22.3333 23.6261 22.0524 22.9478 21.5523 22.4477C21.0522 21.9476 20.3739 21.6667 19.6667 21.6667V19C20.2467 19 20.7407 19.37 20.9247 19.8887C20.952 19.9735 20.996 20.052 21.0542 20.1196C21.1124 20.1871 21.1835 20.2423 21.2634 20.2819C21.3432 20.3214 21.4302 20.3446 21.5192 20.35C21.6082 20.3553 21.6973 20.3428 21.7814 20.3131C21.8654 20.2834 21.9427 20.2371 22.0085 20.1771C22.0744 20.117 22.1276 20.0443 22.1648 19.9634C22.2021 19.8824 22.2228 19.7948 22.2256 19.7057C22.2285 19.6166 22.2134 19.5278 22.1813 19.4447C21.9974 18.9247 21.6569 18.4745 21.2065 18.1561C20.7562 17.8377 20.2182 17.6667 19.6667 17.6667ZM19.6667 23V25.6667C20.0203 25.6667 20.3594 25.5262 20.6095 25.2761C20.8595 25.0261 21 24.687 21 24.3333C21 23.9797 20.8595 23.6406 20.6095 23.3905C20.3594 23.1405 20.0203 23 19.6667 23Z" fill="white"/>
</g>
<defs>
<clipPath id="clip0_1_27">
<rect width="24" height="24" fill="white" transform="translate(7 7)"/>
</clipPath>
</defs>
</svg>
