<svg width="20" height="20" viewBox="0 0 20 20" fill="none" xmlns="http://www.w3.org/2000/svg">
<path d="M6.61626 2.045C6.38192 2.27941 6.25027 2.59729 6.25027 2.92875C6.25027 3.2602 6.38192 3.57809 6.61626 3.8125L12.8038 10L6.61626 16.1875C6.38856 16.4233 6.26257 16.739 6.26541 17.0668C6.26826 17.3945 6.39972 17.708 6.63148 17.9398C6.86324 18.1715 7.17676 18.303 7.50451 18.3058C7.83225 18.3087 8.148 18.1827 8.38376 17.955L15.455 10.8837C15.6893 10.6493 15.821 10.3315 15.821 10C15.821 9.66854 15.6893 9.35066 15.455 9.11625L8.38376 2.045C8.14935 1.81066 7.83146 1.67902 7.50001 1.67902C7.16855 1.67902 6.85067 1.81066 6.61626 2.045V2.045Z" fill="black" fill-opacity="0.75"/>
</svg>
