<svg width="114" height="26" viewBox="0 0 114 26" fill="none" xmlns="http://www.w3.org/2000/svg">
<rect width="114" height="26" rx="4" fill="white"/>
<g clip-path="url(#clip0_1_3300)">
<path d="M26.1914 11.7227C25.7402 11.7227 25.3906 12.0723 25.3906 12.5039C25.3906 12.9355 25.7402 13.2852 26.1914 13.2852C26.6035 13.2852 26.9531 12.9355 26.9531 12.5039C26.9531 12.0723 26.6035 11.7227 26.1914 11.7227ZM20.7227 11.7227C20.2715 11.7227 19.9219 12.0723 19.9219 12.5039C19.9219 12.9355 20.2715 13.2852 20.7227 13.2852C21.1348 13.2852 21.4844 12.9355 21.4844 12.5039C21.4844 12.0723 21.1348 11.7227 20.7227 11.7227Z" fill="#11AC90"/>
<path d="M32.4609 10.2382C31.5215 8.94912 30.209 8.08779 28.7695 7.69912V7.70107C28.4355 7.32998 28.0586 6.98818 27.6367 6.68349C24.4395 4.35927 19.9512 5.06826 17.6172 8.26552C15.7363 10.8632 15.8164 14.3573 17.7344 16.8397L17.75 19.4296C17.75 19.4921 17.7598 19.5546 17.7793 19.6132C17.8828 19.9433 18.2344 20.1249 18.5625 20.0214L21.0352 19.2421C21.6895 19.4745 22.3652 19.6073 23.0371 19.6444L23.0273 19.6522C24.7676 20.9198 27.0488 21.3007 29.1406 20.6093L31.623 21.4179C31.6855 21.4374 31.75 21.4491 31.8164 21.4491C32.1621 21.4491 32.4414 21.1698 32.4414 20.8241V18.2069C34.1621 15.871 34.207 12.6425 32.4609 10.2382ZM21.3086 17.8554L21.0742 17.7577L19.1406 18.3632L19.1211 16.3319L18.9648 16.1561C17.3125 14.1405 17.2031 11.2362 18.75 9.10537C20.6328 6.52333 24.2422 5.95302 26.8164 7.8163C29.3984 9.69326 29.9707 13.2968 28.1055 15.8632C26.541 18.0097 23.7402 18.8026 21.3086 17.8554ZM31.1719 17.5233L31.0156 17.7186L31.0352 19.7499L29.1211 19.1054L28.8867 19.203C27.793 19.6093 26.627 19.6425 25.5469 19.3397L25.543 19.3378C26.9863 18.8944 28.2949 17.996 29.2383 16.703C30.7305 14.6464 30.9727 12.0624 30.1055 9.85927L30.1172 9.86708C30.5664 10.1894 30.9785 10.5917 31.3281 11.078C32.7461 13.0233 32.666 15.6718 31.1719 17.5233Z" fill="#11AC90"/>
<path d="M23.457 11.7227C23.0059 11.7227 22.6562 12.0723 22.6562 12.5039C22.6562 12.9355 23.0059 13.2852 23.457 13.2852C23.8691 13.2852 24.2188 12.9355 24.2188 12.5039C24.2188 12.0723 23.8691 11.7227 23.457 11.7227Z" fill="#11AC90"/>
</g>
<path d="M43.808 8.66V9.776H40.268V12.236H43.028V13.352H40.268V17H38.9V8.66H43.808ZM51.1358 13.532C51.1358 13.78 51.1198 14.004 51.0878 14.204H46.0358C46.0758 14.732 46.2718 15.156 46.6238 15.476C46.9758 15.796 47.4078 15.956 47.9198 15.956C48.6558 15.956 49.1758 15.648 49.4798 15.032H50.9558C50.7558 15.64 50.3918 16.14 49.8638 16.532C49.3438 16.916 48.6958 17.108 47.9198 17.108C47.2878 17.108 46.7198 16.968 46.2158 16.688C45.7198 16.4 45.3278 16 45.0398 15.488C44.7598 14.968 44.6198 14.368 44.6198 13.688C44.6198 13.008 44.7558 12.412 45.0278 11.9C45.3078 11.38 45.6958 10.98 46.1918 10.7C46.6958 10.42 47.2718 10.28 47.9198 10.28C48.5438 10.28 49.0998 10.416 49.5878 10.688C50.0758 10.96 50.4558 11.344 50.7278 11.84C50.9998 12.328 51.1358 12.892 51.1358 13.532ZM49.7078 13.1C49.6998 12.596 49.5198 12.192 49.1678 11.888C48.8158 11.584 48.3798 11.432 47.8598 11.432C47.3878 11.432 46.9838 11.584 46.6478 11.888C46.3118 12.184 46.1118 12.588 46.0478 13.1H49.7078ZM58.542 13.532C58.542 13.78 58.526 14.004 58.494 14.204H53.442C53.482 14.732 53.678 15.156 54.03 15.476C54.382 15.796 54.814 15.956 55.326 15.956C56.062 15.956 56.582 15.648 56.886 15.032H58.362C58.162 15.64 57.798 16.14 57.27 16.532C56.75 16.916 56.102 17.108 55.326 17.108C54.694 17.108 54.126 16.968 53.622 16.688C53.126 16.4 52.734 16 52.446 15.488C52.166 14.968 52.026 14.368 52.026 13.688C52.026 13.008 52.162 12.412 52.434 11.9C52.714 11.38 53.102 10.98 53.598 10.7C54.102 10.42 54.678 10.28 55.326 10.28C55.95 10.28 56.506 10.416 56.994 10.688C57.482 10.96 57.862 11.344 58.134 11.84C58.406 12.328 58.542 12.892 58.542 13.532ZM57.114 13.1C57.106 12.596 56.926 12.192 56.574 11.888C56.222 11.584 55.786 11.432 55.266 11.432C54.794 11.432 54.39 11.584 54.054 11.888C53.718 12.184 53.518 12.588 53.454 13.1H57.114ZM59.4323 13.664C59.4323 13 59.5683 12.412 59.8403 11.9C60.1203 11.388 60.4963 10.992 60.9683 10.712C61.4483 10.424 61.9803 10.28 62.5643 10.28C62.9963 10.28 63.4203 10.376 63.8363 10.568C64.2603 10.752 64.5963 11 64.8443 11.312V8.12H66.2243V17H64.8443V16.004C64.6203 16.324 64.3083 16.588 63.9083 16.796C63.5163 17.004 63.0643 17.108 62.5523 17.108C61.9763 17.108 61.4483 16.964 60.9683 16.676C60.4963 16.38 60.1203 15.972 59.8403 15.452C59.5683 14.924 59.4323 14.328 59.4323 13.664ZM64.8443 13.688C64.8443 13.232 64.7483 12.836 64.5563 12.5C64.3723 12.164 64.1283 11.908 63.8243 11.732C63.5203 11.556 63.1923 11.468 62.8403 11.468C62.4883 11.468 62.1603 11.556 61.8563 11.732C61.5523 11.9 61.3043 12.152 61.1123 12.488C60.9283 12.816 60.8363 13.208 60.8363 13.664C60.8363 14.12 60.9283 14.52 61.1123 14.864C61.3043 15.208 61.5523 15.472 61.8563 15.656C62.1683 15.832 62.4963 15.92 62.8403 15.92C63.1923 15.92 63.5203 15.832 63.8243 15.656C64.1283 15.48 64.3723 15.224 64.5563 14.888C64.7483 14.544 64.8443 14.144 64.8443 13.688ZM69.3891 11.372C69.6211 11.052 69.9371 10.792 70.3371 10.592C70.7451 10.384 71.1971 10.28 71.6931 10.28C72.2771 10.28 72.8051 10.42 73.2771 10.7C73.7491 10.98 74.1211 11.38 74.3931 11.9C74.6651 12.412 74.8011 13 74.8011 13.664C74.8011 14.328 74.6651 14.924 74.3931 15.452C74.1211 15.972 73.7451 16.38 73.2651 16.676C72.7931 16.964 72.2691 17.108 71.6931 17.108C71.1811 17.108 70.7251 17.008 70.3251 16.808C69.9331 16.608 69.6211 16.352 69.3891 16.04V17H68.0211V8.12H69.3891V11.372ZM73.4091 13.664C73.4091 13.208 73.3131 12.816 73.1211 12.488C72.9371 12.152 72.6891 11.9 72.3771 11.732C72.0731 11.556 71.7451 11.468 71.3931 11.468C71.0491 11.468 70.7211 11.556 70.4091 11.732C70.1051 11.908 69.8571 12.164 69.6651 12.5C69.4811 12.836 69.3891 13.232 69.3891 13.688C69.3891 14.144 69.4811 14.544 69.6651 14.888C69.8571 15.224 70.1051 15.48 70.4091 15.656C70.7211 15.832 71.0491 15.92 71.3931 15.92C71.7451 15.92 72.0731 15.832 72.3771 15.656C72.6891 15.472 72.9371 15.208 73.1211 14.864C73.3131 14.52 73.4091 14.12 73.4091 13.664ZM75.6979 13.664C75.6979 13 75.8339 12.412 76.1059 11.9C76.3859 11.388 76.7619 10.992 77.2339 10.712C77.7139 10.424 78.2419 10.28 78.8179 10.28C79.3379 10.28 79.7899 10.384 80.1739 10.592C80.5659 10.792 80.8779 11.044 81.1099 11.348V10.388H82.4899V17H81.1099V16.016C80.8779 16.328 80.5619 16.588 80.1619 16.796C79.7619 17.004 79.3059 17.108 78.7939 17.108C78.2259 17.108 77.7059 16.964 77.2339 16.676C76.7619 16.38 76.3859 15.972 76.1059 15.452C75.8339 14.924 75.6979 14.328 75.6979 13.664ZM81.1099 13.688C81.1099 13.232 81.0139 12.836 80.8219 12.5C80.6379 12.164 80.3939 11.908 80.0899 11.732C79.7859 11.556 79.4579 11.468 79.1059 11.468C78.7539 11.468 78.4259 11.556 78.1219 11.732C77.8179 11.9 77.5699 12.152 77.3779 12.488C77.1939 12.816 77.1019 13.208 77.1019 13.664C77.1019 14.12 77.1939 14.52 77.3779 14.864C77.5699 15.208 77.8179 15.472 78.1219 15.656C78.4339 15.832 78.7619 15.92 79.1059 15.92C79.4579 15.92 79.7859 15.832 80.0899 15.656C80.3939 15.48 80.6379 15.224 80.8219 14.888C81.0139 14.544 81.1099 14.144 81.1099 13.688ZM83.8307 13.688C83.8307 13.008 83.9667 12.412 84.2387 11.9C84.5187 11.38 84.9027 10.98 85.3907 10.7C85.8787 10.42 86.4387 10.28 87.0707 10.28C87.8707 10.28 88.5307 10.472 89.0507 10.856C89.5787 11.232 89.9347 11.772 90.1187 12.476H88.6427C88.5227 12.148 88.3307 11.892 88.0667 11.708C87.8027 11.524 87.4707 11.432 87.0707 11.432C86.5107 11.432 86.0627 11.632 85.7267 12.032C85.3987 12.424 85.2347 12.976 85.2347 13.688C85.2347 14.4 85.3987 14.956 85.7267 15.356C86.0627 15.756 86.5107 15.956 87.0707 15.956C87.8627 15.956 88.3867 15.608 88.6427 14.912H90.1187C89.9267 15.584 89.5667 16.12 89.0387 16.52C88.5107 16.912 87.8547 17.108 87.0707 17.108C86.4387 17.108 85.8787 16.968 85.3907 16.688C84.9027 16.4 84.5187 16 84.2387 15.488C83.9667 14.968 83.8307 14.368 83.8307 13.688ZM94.098 13.7L97.146 17H95.298L92.85 14.156V17H91.482V8.12H92.85V13.28L95.25 10.388H97.146L94.098 13.7Z" fill="black"/>
<rect x="0.5" y="0.5" width="113" height="25" rx="3.5" stroke="black" stroke-opacity="0.2"/>
<defs>
<clipPath id="clip0_1_3300">
<rect width="18" height="17" fill="white" transform="translate(16 4.5)"/>
</clipPath>
</defs>
</svg>
