<svg width="36" height="35" viewBox="0 0 36 35" fill="none" xmlns="http://www.w3.org/2000/svg">
<path d="M25.1094 9.84375H5.42188C4.69778 9.84734 4.00437 10.1366 3.49235 10.6486C2.98033 11.1606 2.69109 11.854 2.6875 12.5781V27.8906C2.69109 28.6147 2.98033 29.3081 3.49235 29.8202C4.00437 30.3322 4.69778 30.6214 5.42188 30.625H25.1094C25.8335 30.6214 26.5269 30.3322 27.0389 29.8202C27.5509 29.3081 27.8402 28.6147 27.8438 27.8906V12.5781C27.8402 11.854 27.5509 11.1606 27.0389 10.6486C26.5269 10.1366 25.8335 9.84734 25.1094 9.84375V9.84375ZM24.5625 27.3438H5.96875V13.125H24.5625V27.3438ZM33.3125 7.10938V24.0625C33.3125 24.4976 33.1396 24.9149 32.832 25.2226C32.5243 25.5303 32.107 25.7031 31.6719 25.7031C31.2368 25.7031 30.8195 25.5303 30.5118 25.2226C30.2041 24.9149 30.0312 24.4976 30.0312 24.0625V7.65625H9.25C8.81488 7.65625 8.39758 7.4834 8.0899 7.17572C7.78223 6.86805 7.60938 6.45075 7.60938 6.01562C7.60938 5.5805 7.78223 5.1632 8.0899 4.85553C8.39758 4.54785 8.81488 4.375 9.25 4.375H30.5781C31.3022 4.37859 31.9956 4.66783 32.5077 5.17985C33.0197 5.69187 33.3089 6.38528 33.3125 7.10938V7.10938Z" fill="#373737"/>
</svg>
