<svg width="38" height="38" viewBox="0 0 38 38" fill="none" xmlns="http://www.w3.org/2000/svg">
<rect width="38" height="38" rx="6.08" fill="#11AC90"/>
<path d="M18.9993 20.448C15.7125 20.448 12.9199 21.4038 11.0959 22.9019V25.6883H26.9039V22.9019C25.0799 21.4038 22.2868 20.448 18.9993 20.448V20.448ZM33.5129 19.018L18.961 12.3123L4.41522 19.018L6.83993 20.1276V21.8342C6.23193 21.9601 6.2301 22.2787 6.2301 22.6575C6.2301 22.8812 6.30428 23.1433 6.44533 23.3001L5.61359 25.0803H8.58063L7.75618 23.2989C7.89481 23.142 8.0085 22.911 8.0085 22.6873C8.0085 22.3091 7.44793 21.9595 7.44793 21.8336V20.4127L10.4879 21.7783V21.6573C12.3119 20.071 15.5167 19.0642 18.9987 19.0642C22.4819 19.0642 25.6879 20.071 27.5119 21.6573V21.7783L33.5129 19.018V19.018Z" fill="white"/>
</svg>
