<svg width="16" height="16" viewBox="0 0 16 16" fill="none" xmlns="http://www.w3.org/2000/svg">
<path d="M5.293 1.63605C5.10553 1.82358 5.00021 2.07788 5.00021 2.34305C5.00021 2.60821 5.10553 2.86252 5.293 3.05005L10.243 8.00005L5.293 12.95C5.11084 13.1387 5.01005 13.3913 5.01233 13.6535C5.0146 13.9156 5.11977 14.1665 5.30518 14.3519C5.49059 14.5373 5.7414 14.6424 6.0036 14.6447C6.2658 14.647 6.5184 14.5462 6.707 14.364L12.364 8.70705C12.5515 8.51952 12.6568 8.26521 12.6568 8.00005C12.6568 7.73488 12.5515 7.48058 12.364 7.29305L6.707 1.63605C6.51947 1.44858 6.26516 1.34326 6 1.34326C5.73484 1.34326 5.48053 1.44858 5.293 1.63605V1.63605Z" fill="white"/>
</svg>
