<svg width="26" height="26" viewBox="0 0 26 26" fill="none" xmlns="http://www.w3.org/2000/svg">
<path d="M13 25.5001C11.358 25.5018 9.73183 25.1796 8.21452 24.552C6.69721 23.9244 5.31856 23.0037 4.1575 21.8426C2.99644 20.6816 2.07576 19.3029 1.44816 17.7856C0.820561 16.2683 0.498362 14.6421 0.500006 13.0001V12.7501C0.550017 10.2994 1.31912 7.91738 2.71174 5.90015C4.10436 3.88292 6.05907 2.31941 8.33295 1.40395C10.6068 0.488484 13.0996 0.261429 15.5015 0.751004C17.9033 1.24058 20.1084 2.4252 21.8425 4.15763C23.5921 5.90581 24.7838 8.13375 25.2668 10.5595C25.7497 12.9852 25.5021 15.4997 24.5554 17.7847C23.6087 20.0696 22.0054 22.0224 19.9485 23.3958C17.8915 24.7693 15.4733 25.5016 13 25.5001ZM13 14.7626L16.2375 18.0001L18 16.2376L14.7625 13.0001L18 9.76262L16.2375 8.00012L13 11.2376L9.76251 8.00012L8.00001 9.76262L11.2375 13.0001L8.00001 16.2376L9.76251 18.0001L13 14.7639V14.7626Z" fill="black" fill-opacity="0.7"/>
</svg>
