<svg width="16" height="16" viewBox="0 0 16 16" fill="none" xmlns="http://www.w3.org/2000/svg">
<path d="M8 0.125C3.65117 0.125 0.125 3.65117 0.125 8C0.125 12.3488 3.65117 15.875 8 15.875C12.3488 15.875 15.875 12.3488 15.875 8C15.875 3.65117 12.3488 0.125 8 0.125ZM10.533 8.12129L6.69395 10.9145C6.6729 10.9296 6.64809 10.9386 6.62225 10.9405C6.5964 10.9425 6.57052 10.9373 6.54745 10.9255C6.52438 10.9137 6.50501 10.8957 6.49147 10.8736C6.47793 10.8515 6.47074 10.8261 6.4707 10.8002V5.21738C6.47062 5.19141 6.47773 5.16593 6.49124 5.14375C6.50475 5.12157 6.52414 5.10357 6.54726 5.09174C6.57037 5.07991 6.59632 5.07471 6.62221 5.07672C6.6481 5.07873 6.67293 5.08787 6.69395 5.10313L10.533 7.89453C10.5511 7.90736 10.5659 7.92435 10.5762 7.94408C10.5864 7.96381 10.5917 7.9857 10.5917 8.00791C10.5917 8.03012 10.5864 8.05201 10.5762 8.07174C10.5659 8.09147 10.5511 8.10846 10.533 8.12129Z" fill="#FF6A6A"/>
</svg>
