<svg width="25" height="23" viewBox="0 0 25 23" fill="none" xmlns="http://www.w3.org/2000/svg">
<path d="M2.73438 14.625L10.354 15.2109L9.23096 19.5762C8.93408 20.875 9.26514 21.6206 10.3242 21.9502L12.0181 22.4312C12.0582 22.4418 12.1006 22.4394 12.1392 22.4243C12.1778 22.4092 12.2107 22.3822 12.2329 22.3472L18.5317 12.4673C18.5667 12.4105 18.6156 12.3635 18.6738 12.331C18.732 12.2984 18.7976 12.2813 18.8643 12.2813H24.2188V2.125H18.4761C18.2242 2.12506 17.9739 2.0845 17.7349 2.00488L14.0093 0.763184C13.611 0.630328 13.1938 0.562564 12.7739 0.5625H4.08594C3.1582 0.5625 2.54785 1.22266 2.36572 2.13281L0.78125 9.0791V12.6719C0.78125 13.749 1.66016 14.5273 2.73438 14.625Z" fill="white"/>
</svg>
