<svg width="29" height="25" viewBox="0 0 29 25" fill="none" xmlns="http://www.w3.org/2000/svg">
<path d="M27.3342 5.16272C26.9037 4.16572 26.2828 3.26225 25.5064 2.50288C24.7294 1.74124 23.8134 1.13598 22.808 0.720006C21.7655 0.286956 20.6474 0.0652955 19.5185 0.0678937C17.9348 0.0678937 16.3897 0.501565 15.0469 1.32072C14.7257 1.51668 14.4205 1.7319 14.1314 1.96641C13.8423 1.7319 13.5371 1.51668 13.2158 1.32072C11.8731 0.501565 10.3279 0.0678937 8.74422 0.0678937C7.60382 0.0678937 6.49877 0.286335 5.45474 0.720006C4.44606 1.13762 3.53696 1.73833 2.75635 2.50288C1.97894 3.26139 1.35793 4.16508 0.928505 5.16272C0.481985 6.20032 0.253906 7.30217 0.253906 8.43614C0.253906 9.50586 0.472348 10.6206 0.906019 11.7545C1.26902 12.7022 1.78942 13.6852 2.45438 14.6778C3.50804 16.2486 4.95683 17.8869 6.75576 19.5477C9.73684 22.3008 12.689 24.2025 12.8143 24.2796L13.5756 24.7679C13.9129 24.9831 14.3466 24.9831 14.6839 24.7679L15.4452 24.2796C15.5705 24.1993 18.5195 22.3008 21.5038 19.5477C23.3027 17.8869 24.7515 16.2486 25.8052 14.6778C26.4701 13.6852 26.9937 12.7022 27.3535 11.7545C27.7872 10.6206 28.0056 9.50586 28.0056 8.43614C28.0088 7.30217 27.7808 6.20032 27.3342 5.16272Z" fill="white"/>
</svg>
