<svg width="22" height="18" viewBox="0 0 22 18" fill="none" xmlns="http://www.w3.org/2000/svg">
<path d="M20.5978 3.70589C20.2848 2.98805 19.8335 2.33755 19.2691 1.7908C18.7043 1.24242 18.0383 0.806635 17.3075 0.507135C16.5496 0.195338 15.7368 0.0357432 14.9162 0.0376139C13.7649 0.0376139 12.6416 0.349857 11.6655 0.939649C11.432 1.08074 11.2101 1.2357 10.9999 1.40454C10.7898 1.2357 10.5679 1.08074 10.3344 0.939649C9.35825 0.349857 8.23499 0.0376139 7.08371 0.0376139C6.25469 0.0376139 5.45136 0.194892 4.6924 0.507135C3.95913 0.807813 3.29825 1.24033 2.73079 1.7908C2.16565 2.33693 1.7142 2.98759 1.40203 3.70589C1.07742 4.45296 0.911621 5.24629 0.911621 6.06275C0.911621 6.83295 1.07042 7.63553 1.38568 8.45198C1.64956 9.13429 2.02787 9.84204 2.51127 10.5567C3.27724 11.6877 4.33044 12.8673 5.63818 14.0631C7.8053 16.0453 9.95141 17.4145 10.0425 17.47L10.5959 17.8216C10.8411 17.9766 11.1564 17.9766 11.4016 17.8216L11.9551 17.47C12.0461 17.4122 14.1899 16.0453 16.3594 14.0631C17.6671 12.8673 18.7203 11.6877 19.4863 10.5567C19.9697 9.84204 20.3503 9.13429 20.6119 8.45198C20.9271 7.63553 21.0859 6.83295 21.0859 6.06275C21.0883 5.24629 20.9225 4.45296 20.5978 3.70589Z" fill="#FF6A6A"/>
</svg>
