<svg width="23" height="22" viewBox="0 0 23 22" fill="none" xmlns="http://www.w3.org/2000/svg">
<path d="M2.125 13.9897L9.43984 14.5522L8.36172 18.7429C8.07672 19.9897 8.39453 20.7055 9.41125 21.0219L11.0373 21.4837C11.0758 21.4939 11.1166 21.4915 11.1536 21.477C11.1907 21.4625 11.2222 21.4366 11.2436 21.403L17.2905 11.9183C17.324 11.8638 17.3709 11.8187 17.4268 11.7875C17.4827 11.7562 17.5457 11.7398 17.6097 11.7397H22.75V1.98975H17.237C16.9952 1.9898 16.7549 1.95086 16.5255 1.87443L12.9489 0.682402C12.5665 0.554861 12.1661 0.489808 11.763 0.489746H3.4225C2.53187 0.489746 1.94594 1.1235 1.77109 1.99725L0.25 8.66568V12.1147C0.25 13.1488 1.09375 13.896 2.125 13.9897Z" fill="#4104EF"/>
</svg>
