<svg width="60" height="60" viewBox="0 0 60 60" fill="none" xmlns="http://www.w3.org/2000/svg">
<path fill-rule="evenodd" clip-rule="evenodd" d="M30 0C13.4318 0 0 13.4318 0 30C0 46.5682 13.4318 60 30 60C46.5682 60 60 46.5682 60 30C60 13.4318 46.5682 0 30 0ZM43.0036 24.9273C43.2431 24.6536 43.4254 24.3347 43.5398 23.9895C43.6542 23.6444 43.6984 23.2798 43.6698 22.9172C43.6413 22.5547 43.5405 22.2015 43.3734 21.8785C43.2063 21.5555 42.9763 21.2692 42.6969 21.0364C42.4176 20.8036 42.0945 20.629 41.7466 20.5229C41.3988 20.4168 41.0332 20.3814 40.6715 20.4186C40.3098 20.4559 39.9591 20.5651 39.6402 20.7399C39.3213 20.9147 39.0406 21.1515 38.8145 21.4364L27.0873 35.5064L21.0191 29.4355C20.5047 28.9387 19.8158 28.6638 19.1007 28.67C18.3856 28.6762 17.7016 28.963 17.1959 29.4687C16.6903 29.9743 16.4035 30.6584 16.3973 31.3735C16.391 32.0885 16.6659 32.7774 17.1627 33.2918L25.3445 41.4736C25.6125 41.7415 25.9333 41.9505 26.2866 42.0874C26.6398 42.2244 27.0177 42.2862 27.3962 42.269C27.7747 42.2519 28.1454 42.156 28.4848 41.9876C28.8241 41.8192 29.1247 41.5819 29.3673 41.2909L43.0036 24.9273Z" fill="#11AC90"/>
</svg>
