<svg width="50" height="13" viewBox="0 0 50 13" fill="none" xmlns="http://www.w3.org/2000/svg">
<path d="M19.7321 7.32139L22.4911 10.7143H20.3125L17.8571 7.59824V10.7143H16.0714V1.78574H17.8571V7.03574L20.125 4.46426H22.4018L19.7321 7.32139ZM12.5893 4.28574C12.1983 4.2916 11.8145 4.39212 11.4709 4.57871C11.1273 4.7653 10.834 5.0324 10.6161 5.35713V4.46426H8.92861V10.7143H10.7143V7.79463C10.6908 7.58271 10.7112 7.36824 10.7742 7.16455C10.8373 6.96087 10.9415 6.77233 11.0806 6.61069C11.2196 6.44904 11.3904 6.31774 11.5824 6.22496C11.7743 6.13218 11.9833 6.0799 12.1964 6.07139C13.2321 6.07139 13.3929 7.08926 13.3929 7.79463V10.7143H15.1786V7.40176C15.1786 5.4375 14.5268 4.28574 12.625 4.28574H12.5893ZM28.5714 7.73213C28.5782 7.86299 28.5782 7.99414 28.5714 8.125H23.8839V8.1875C23.96 8.55983 24.1663 8.89286 24.4657 9.12684C24.7652 9.36083 25.1382 9.48045 25.5179 9.46426C25.8191 9.47736 26.1198 9.42955 26.4021 9.32371C26.6844 9.21786 26.9424 9.05614 27.1607 8.84824L28.3482 9.74111C27.9719 10.1252 27.5192 10.4261 27.0194 10.6245C26.5195 10.8229 25.9837 10.9143 25.4464 10.8929C25.0014 10.921 24.5556 10.8533 24.139 10.6943C23.7224 10.5354 23.3448 10.2889 23.0317 9.97152C22.7185 9.65413 22.4771 9.27324 22.3238 8.85457C22.1705 8.43589 22.1088 7.98919 22.1429 7.54463C22.1337 7.10577 22.2151 6.66973 22.3818 6.26369C22.5486 5.85764 22.7972 5.4903 23.1122 5.18455C23.4271 4.87881 23.8017 4.64121 24.2125 4.48657C24.6233 4.33194 25.0616 4.26357 25.5 4.28574C27.1786 4.28574 28.5714 5.47324 28.5714 7.73213ZM26.9107 6.96426C26.9042 6.7874 26.8617 6.61374 26.7858 6.45385C26.71 6.29395 26.6023 6.15118 26.4695 6.03423C26.3367 5.91727 26.1814 5.82859 26.0132 5.77358C25.845 5.71857 25.6674 5.69839 25.4911 5.71426C24.706 5.62939 23.9949 6.18242 23.8839 6.96426H26.9107ZM1.78574 1.78574H0V10.7143H5.35713V8.92871H1.78574V1.78574ZM33.9286 1.78574H35.7143V10.7143H34.0268V10.0893C33.8125 10.3533 33.5394 10.5634 33.2293 10.703C32.9192 10.8425 32.5808 10.9076 32.2411 10.8929C31.8261 10.8822 31.4176 10.7868 31.0408 10.6125C30.6641 10.4382 30.3269 10.1886 30.0501 9.8792C29.7733 9.56978 29.5627 9.20703 29.4313 8.81322C29.2998 8.41942 29.2503 8.0029 29.2857 7.58926C29.2436 7.17503 29.2881 6.75656 29.4165 6.36048C29.5449 5.9644 29.7543 5.59938 30.0314 5.28865C30.3086 4.97792 30.6474 4.72828 31.0262 4.55561C31.4051 4.38295 31.8158 4.29104 32.2321 4.28574C32.5422 4.27216 32.8519 4.32042 33.1432 4.42772C33.4345 4.53503 33.7014 4.69922 33.9286 4.91074V1.78574ZM34.0625 7.58926C34.0906 7.38308 34.0741 7.17329 34.0142 6.97401C33.9544 6.77474 33.8524 6.59063 33.7154 6.43408C33.5783 6.27754 33.4092 6.15221 33.2196 6.06655C33.03 5.98089 32.8242 5.93688 32.6161 5.9375C31.7619 5.99951 31.1146 6.73408 31.1607 7.58926C31.1146 8.44443 31.7619 9.1791 32.6161 9.24111C32.8242 9.24173 33.03 9.19773 33.2196 9.11206C33.4093 9.02639 33.5783 8.90105 33.7154 8.7445C33.8525 8.58794 33.9544 8.40382 34.0143 8.20453C34.0741 8.00525 34.0906 7.79544 34.0625 7.58926ZM7.14287 1.60713C6.85572 1.6112 6.5808 1.72408 6.37364 1.92297C6.16648 2.12187 6.04251 2.39196 6.02676 2.67871C6.02676 3.29502 6.52646 3.79473 7.14287 3.79473C7.75928 3.79473 8.25879 3.29492 8.25879 2.67871C8.24302 2.39199 8.11905 2.12194 7.91191 1.92307C7.70477 1.72419 7.4299 1.61132 7.14277 1.60723L7.14287 1.60713ZM6.25 10.7143H8.03574V4.46426H6.25V10.7143ZM50 0.892871V11.6071C50 11.8439 49.9059 12.071 49.7385 12.2385C49.571 12.4059 49.3439 12.5 49.1071 12.5H38.3929C38.1561 12.5 37.929 12.4059 37.7615 12.2385C37.5941 12.071 37.5 11.8439 37.5 11.6071V0.892871C37.5 0.656067 37.5941 0.428962 37.7615 0.261516C37.929 0.0940701 38.1561 0 38.3929 0L49.1071 0C49.3439 0 49.571 0.0940701 49.7385 0.261516C49.9059 0.428962 50 0.656067 50 0.892871ZM41.0714 4.46426H39.2857V10.7143H41.0714V4.46426ZM41.2946 2.67861C41.2946 2.06221 40.7949 1.5625 40.1786 1.5625C39.5622 1.5625 39.0625 2.06221 39.0625 2.67861C39.0625 3.29492 39.5622 3.79463 40.1786 3.79463C40.7949 3.79463 41.2946 3.29492 41.2946 2.67861ZM48.2143 7.40176C48.2143 5.4375 47.5625 4.28574 45.6607 4.28574C45.2637 4.28578 44.8727 4.38353 44.5224 4.57037C44.172 4.75722 43.873 5.02742 43.6518 5.35713V4.46426H41.9643V10.7143H43.75V7.79463C43.7266 7.58271 43.747 7.36824 43.81 7.16455C43.873 6.96087 43.9773 6.77233 44.1163 6.61069C44.2553 6.44904 44.4262 6.31774 44.6181 6.22496C44.8101 6.13218 45.0191 6.0799 45.2321 6.07139C46.2679 6.07139 46.4286 7.08926 46.4286 7.79463V10.7143H48.2143V7.40176Z" fill="white"/>
</svg>
