<svg width="28" height="28" viewBox="0 0 28 28" fill="none" xmlns="http://www.w3.org/2000/svg">
<path d="M13.9998 0.666992C11.3628 0.666992 8.7849 1.44898 6.59224 2.91406C4.39958 4.37915 2.69062 6.46153 1.68145 8.89788C0.672281 11.3342 0.408237 14.0151 0.922706 16.6015C1.43718 19.1879 2.70705 21.5637 4.57175 23.4284C6.43645 25.2931 8.81223 26.563 11.3986 27.0775C13.9851 27.5919 16.6659 27.3279 19.1023 26.3187C21.5386 25.3096 23.621 23.6006 25.0861 21.4079C26.5512 19.2153 27.3332 16.6374 27.3332 14.0003C27.3332 12.2494 26.9883 10.5156 26.3182 8.89788C25.6482 7.2802 24.666 5.81035 23.4279 4.57223C22.1898 3.33412 20.72 2.35199 19.1023 1.68193C17.4846 1.01187 15.7508 0.666992 13.9998 0.666992ZM17.6132 15.7203C17.7381 15.8443 17.8373 15.9917 17.905 16.1542C17.9727 16.3167 18.0076 16.491 18.0076 16.667C18.0076 16.843 17.9727 17.0173 17.905 17.1798C17.8373 17.3422 17.7381 17.4897 17.6132 17.6137C17.4892 17.7386 17.3418 17.8378 17.1793 17.9055C17.0168 17.9732 16.8425 18.0081 16.6665 18.0081C16.4905 18.0081 16.3162 17.9732 16.1537 17.9055C15.9913 17.8378 15.8438 17.7386 15.7198 17.6137L13.9998 15.8803L12.2798 17.6137C12.1559 17.7386 12.0084 17.8378 11.8459 17.9055C11.6835 17.9732 11.5092 18.0081 11.3332 18.0081C11.1572 18.0081 10.9829 17.9732 10.8204 17.9055C10.6579 17.8378 10.5105 17.7386 10.3865 17.6137C10.2615 17.4897 10.1623 17.3422 10.0947 17.1798C10.027 17.0173 9.99211 16.843 9.99211 16.667C9.99211 16.491 10.027 16.3167 10.0947 16.1542C10.1623 15.9917 10.2615 15.8443 10.3865 15.7203L12.1198 14.0003L10.3865 12.2803C10.1354 12.0293 9.99439 11.6887 9.99439 11.3337C9.99439 10.9786 10.1354 10.6381 10.3865 10.387C10.6376 10.1359 10.9781 9.99487 11.3332 9.99487C11.6882 9.99487 12.0288 10.1359 12.2798 10.387L13.9998 12.1203L15.7198 10.387C15.9709 10.1359 16.3114 9.99487 16.6665 9.99487C17.0216 9.99487 17.3621 10.1359 17.6132 10.387C17.8642 10.6381 18.0053 10.9786 18.0053 11.3337C18.0053 11.6887 17.8642 12.0293 17.6132 12.2803L15.8798 14.0003L17.6132 15.7203Z" fill="white"/>
</svg>
