<svg width="35" height="35" viewBox="0 0 35 35" fill="none" xmlns="http://www.w3.org/2000/svg">
<path d="M17.5 8.02084C18.8537 8.02084 20.152 8.5586 21.1092 9.51582C22.0664 10.473 22.6042 11.7713 22.6042 13.125C22.6042 14.4787 22.0664 15.777 21.1092 16.7342C20.152 17.6914 18.8537 18.2292 17.5 18.2292C16.1463 18.2292 14.848 17.6914 13.8908 16.7342C12.9336 15.777 12.3958 14.4787 12.3958 13.125C12.3958 11.7713 12.9336 10.473 13.8908 9.51582C14.848 8.5586 16.1463 8.02084 17.5 8.02084M7.29167 11.6667C8.10833 11.6667 8.86667 11.8854 9.52292 12.2792C9.30417 14.3646 9.91667 16.4354 11.1708 18.0542C10.4417 19.4542 8.98333 20.4167 7.29167 20.4167C6.13134 20.4167 5.01855 19.9557 4.19807 19.1353C3.3776 18.3148 2.91667 17.202 2.91667 16.0417C2.91667 14.8814 3.3776 13.7686 4.19807 12.9481C5.01855 12.1276 6.13134 11.6667 7.29167 11.6667M27.7083 11.6667C28.8687 11.6667 29.9815 12.1276 30.8019 12.9481C31.6224 13.7686 32.0833 14.8814 32.0833 16.0417C32.0833 17.202 31.6224 18.3148 30.8019 19.1353C29.9815 19.9557 28.8687 20.4167 27.7083 20.4167C26.0167 20.4167 24.5583 19.4542 23.8292 18.0542C25.1007 16.4127 25.6908 14.3445 25.4771 12.2792C26.1333 11.8854 26.8917 11.6667 27.7083 11.6667M8.02083 26.6146C8.02083 23.5958 12.2646 21.1458 17.5 21.1458C22.7354 21.1458 26.9792 23.5958 26.9792 26.6146V29.1667H8.02083V26.6146ZM0 29.1667V26.9792C0 24.9521 2.75625 23.2458 6.48958 22.75C5.62917 23.7417 5.10417 25.1125 5.10417 26.6146V29.1667H0ZM35 29.1667H29.8958V26.6146C29.8958 25.1125 29.3708 23.7417 28.5104 22.75C32.2437 23.2458 35 24.9521 35 26.9792V29.1667Z" fill="#11ac90"/>
</svg>
