<svg width="22" height="20" viewBox="0 0 22 20" fill="none" xmlns="http://www.w3.org/2000/svg">
<path d="M20.5979 4.6068C20.2849 3.86427 19.8335 3.1914 19.2691 2.62585C18.7043 2.05861 18.0384 1.60783 17.3075 1.29803C16.5497 0.975513 15.7369 0.810429 14.9162 0.812364C13.7649 0.812364 12.6417 1.13535 11.6655 1.74542C11.432 1.89136 11.2102 2.05166 11 2.22631C10.7898 2.05166 10.568 1.89136 10.3344 1.74542C9.35831 1.13535 8.23505 0.812364 7.08377 0.812364C6.25475 0.812364 5.45142 0.975051 4.69247 1.29803C3.95919 1.60905 3.29832 2.05644 2.73085 2.62585C2.16571 3.19076 1.71426 3.86379 1.40209 4.6068C1.07749 5.37956 0.911682 6.20017 0.911682 7.04471C0.911682 7.8414 1.07048 8.67158 1.38574 9.51612C1.64962 10.2219 2.02794 10.954 2.51133 11.6933C3.2773 12.8632 4.3305 14.0833 5.63824 15.3202C7.80536 17.3706 9.95147 18.7869 10.0425 18.8443L10.596 19.208C10.8412 19.3683 11.1565 19.3683 11.4017 19.208L11.9551 18.8443C12.0462 18.7845 14.19 17.3706 16.3594 15.3202C17.6672 14.0833 18.7204 12.8632 19.4863 11.6933C19.9697 10.954 20.3504 10.2219 20.6119 9.51612C20.9272 8.67158 21.086 7.8414 21.086 7.04471C21.0883 6.20017 20.9225 5.37956 20.5979 4.6068V4.6068Z" fill="#FF6A6A"/>
</svg>
