<svg width="24" height="25" viewBox="0 0 24 25" fill="none" xmlns="http://www.w3.org/2000/svg">
<path d="M2.62515 15.1435L9.94 15.706L8.86187 19.8966C8.57687 21.1435 8.89468 21.8593 9.9114 22.1757L11.5375 22.6374C11.576 22.6476 11.6167 22.6453 11.6538 22.6308C11.6909 22.6163 11.7224 22.5904 11.7437 22.5568L17.7906 13.0721C17.8242 13.0175 17.8711 12.9725 17.927 12.9412C17.9829 12.91 18.0458 12.8935 18.1098 12.8935H23.2502V3.14349H17.7372C17.4953 3.14355 17.2551 3.10461 17.0256 3.02818L13.4491 1.83615C13.0667 1.70861 12.6662 1.64356 12.2631 1.64349H3.92265C3.03203 1.64349 2.44609 2.27724 2.27125 3.15099L0.750153 9.81943V13.2685C0.750153 14.3026 1.5939 15.0497 2.62515 15.1435Z" fill="#4104EF"/>
<path d="M17.4687 13.23L17.4216 13.3242C17.4897 13.1798 17.6011 13.0603 17.7404 12.9823C17.6313 13.0419 17.5381 13.1268 17.4687 13.23V13.23Z" fill="#4104EF"/>
</svg>
